<?xml version="1.0" standalone="no"?>
<!DOCTYPE svg PUBLIC "-//W3C//DTD SVG 20010904//EN"
 "http://www.w3.org/TR/2001/REC-SVG-20010904/DTD/svg10.dtd">
<svg version="1.0" xmlns="http://www.w3.org/2000/svg"
 width="512.000000pt" height="512.000000pt" viewBox="0 0 512.000000 512.000000"
 preserveAspectRatio="xMidYMid meet">

	<g transform="translate(0.000000,512.000000) scale(0.100000,-0.100000)"
	fill="#000000" stroke="none">
		<path d="M1972 5100 c-40 -11 -96 -32 -124 -47 -117 -63 -221 -190 -259 -313
l-19 -65 -99 3 c-125 5 -190 -9 -294 -60 -112 -56 -229 -171 -280 -278 -54
-110 -70 -186 -65 -300 l5 -96 -49 -33 c-26 -19 -74 -62 -107 -96 -244 -261
-279 -673 -80 -961 l32 -47 -44 -35 c-361 -291 -434 -811 -171 -1200 51 -75
182 -197 258 -241 l59 -35 1 -85 c2 -111 25 -204 79 -316 90 -187 236 -317
440 -391 59 -21 60 -22 87 -89 74 -181 224 -316 426 -383 67 -22 94 -26 207
-26 114 0 140 4 210 27 44 15 108 43 143 64 58 34 175 145 215 203 15 22 18
23 27 8 30 -48 105 -129 154 -167 178 -134 417 -175 632 -107 189 60 330 187
418 376 l33 73 75 27 c95 35 175 86 256 164 79 75 119 130 166 224 50 98 76
206 76 311 l0 86 72 45 c94 57 202 165 266 263 196 301 186 697 -24 993 -42
60 -187 204 -205 204 -6 0 3 19 19 43 93 135 135 272 135 437 0 177 -46 323
-147 464 -46 64 -136 153 -184 182 -28 16 -28 16 -27 132 0 97 -4 129 -24 191
-51 156 -178 300 -326 371 -108 51 -161 62 -284 59 l-104 -3 -17 55 c-29 94
-70 162 -139 229 -148 145 -373 197 -566 130 -76 -26 -183 -98 -229 -154 l-35
-43 -73 71 c-143 139 -323 186 -516 136z m238 -196 c126 -37 211 -130 239
-262 6 -29 11 -138 11 -242 l0 -190 -78 0 -79 0 -18 41 c-10 22 -41 60 -67 84
-148 133 -387 82 -470 -100 -31 -68 -32 -180 -2 -246 100 -218 424 -233 535
-24 l24 45 77 0 78 0 0 -260 0 -260 -305 0 -305 0 -20 39 c-46 92 -137 149
-252 160 l-72 6 -81 140 c-62 105 -89 142 -111 152 -18 7 -79 12 -158 13
l-129 0 6 86 c4 72 11 98 41 159 45 92 130 173 213 206 85 33 209 37 288 10
82 -29 120 -27 154 7 24 23 29 38 33 102 4 41 16 100 27 131 62 166 247 255
421 203z m956 -24 c96 -47 166 -142 180 -244 6 -38 4 -44 -22 -61 -81 -53
-189 -181 -194 -230 -8 -74 25 -115 92 -115 51 1 61 8 111 77 47 64 97 105
174 141 52 24 70 27 163 27 97 0 110 -2 173 -32 168 -80 268 -262 240 -436
-20 -121 -87 -225 -181 -286 -68 -43 -86 -89 -60 -146 13 -29 55 -55 88 -55
52 0 190 110 256 205 l21 29 42 -33 c65 -51 137 -162 167 -255 31 -94 37 -227
15 -316 -17 -71 -62 -165 -100 -211 l-31 -37 -57 18 c-65 20 -107 13 -136 -21
-29 -35 -32 -69 -11 -108 16 -29 31 -40 89 -61 122 -45 196 -91 276 -171 63
-62 85 -93 122 -170 51 -108 66 -160 73 -267 10 -146 -32 -299 -118 -428 -81
-122 -203 -212 -353 -261 -66 -21 -100 -26 -195 -27 -67 -1 -137 5 -167 12
-45 12 -56 12 -86 -3 -62 -29 -77 -107 -29 -154 19 -19 47 -32 92 -41 72 -16
233 -19 323 -7 l57 7 0 -36 c0 -55 -28 -152 -63 -219 -45 -87 -165 -204 -250
-244 -125 -59 -212 -69 -414 -45 -49 6 -54 4 -83 -24 -20 -21 -30 -40 -30 -61
0 -73 37 -102 155 -121 38 -6 71 -13 73 -15 9 -9 -43 -77 -98 -128 -120 -112
-273 -151 -438 -112 -161 38 -278 142 -345 308 -22 51 -22 62 -27 840 l-5 789
-33 29 c-35 31 -66 36 -107 17 -46 -21 -55 -54 -55 -198 l0 -130 -153 0 -153
0 -61 106 -61 106 31 50 c30 48 32 57 32 142 0 75 -4 98 -23 133 -56 107 -147
165 -261 169 l-66 3 -77 133 c-43 73 -87 141 -99 151 -19 15 -53 17 -379 17
l-358 0 -40 53 c-22 28 -47 67 -57 86 -131 259 -49 583 186 740 l61 41 114 0
114 0 24 -37 c13 -21 42 -69 63 -107 l40 -69 -23 -34 c-35 -52 -46 -98 -42
-176 5 -114 61 -201 163 -255 69 -37 188 -38 255 -3 57 29 116 85 141 134 l19
37 305 0 305 0 0 -150 c0 -165 8 -197 55 -218 51 -23 101 -9 128 38 16 26 17
101 17 843 0 800 0 816 21 883 18 57 31 77 83 130 51 51 74 66 127 83 91 30
189 23 275 -19z m-1075 -699 c40 -40 40 -89 0 -133 -76 -85 -209 9 -157 110
20 39 41 51 89 52 29 0 45 -7 68 -29z m-468 -711 c32 -25 46 -66 36 -106 -13
-47 -44 -69 -96 -69 -37 0 -49 5 -69 28 -76 89 38 219 129 147z m-110 -891
l58 -100 -30 -60 c-41 -82 -48 -136 -27 -213 36 -132 138 -216 274 -226 l74
-5 78 -135 c50 -88 88 -141 106 -152 25 -15 56 -18 222 -18 l192 0 0 -509 c0
-279 -4 -530 -9 -557 -33 -173 -148 -312 -310 -376 -75 -29 -240 -32 -320 -5
-150 51 -268 172 -313 322 -27 91 -45 109 -126 130 -193 47 -351 185 -412 358
-25 70 -45 206 -33 218 5 5 157 8 338 7 l329 -3 58 -101 58 -100 -32 -63 c-28
-54 -32 -74 -32 -135 0 -62 4 -83 32 -139 52 -106 144 -161 267 -161 162 1
281 113 293 275 7 97 -17 159 -87 230 -64 64 -123 89 -210 89 l-56 0 -74 130
c-41 71 -85 140 -98 152 -25 23 -25 23 -452 28 l-427 5 -59 35 c-76 45 -181
149 -227 225 -37 61 -88 197 -88 234 0 20 5 21 103 21 l104 0 18 -39 c42 -94
145 -155 261 -155 60 0 81 4 138 33 107 52 158 136 160 261 1 63 -4 84 -27
132 -65 132 -215 196 -362 154 -46 -14 -70 -29 -116 -75 -32 -32 -61 -70 -65
-85 -6 -26 -6 -26 -110 -26 -103 0 -104 0 -104 24 0 38 46 163 82 223 46 77
128 165 200 213 l60 40 322 0 322 0 57 -101z m325 -210 c66 -23 84 -109 33
-160 -71 -71 -192 1 -161 95 21 63 66 87 128 65z m-834 -200 c33 -15 60 -72
51 -107 -29 -116 -194 -98 -195 21 0 73 74 118 144 86z m1017 -1248 c51 -51
31 -139 -36 -161 -86 -28 -159 52 -120 133 30 63 107 77 156 28z"/>
		<path d="M2873 4055 c-39 -17 -53 -42 -53 -93 0 -34 6 -45 49 -85 151 -141
390 -168 583 -65 80 43 138 107 138 153 0 74 -65 120 -132 92 -18 -8 -39 -22
-47 -31 -8 -10 -38 -30 -65 -44 -44 -23 -63 -27 -141 -27 -78 0 -97 4 -141 27
-27 14 -57 34 -65 44 -13 16 -69 44 -86 44 -4 -1 -22 -7 -40 -15z"/>
		<path d="M3574 3221 c-28 -12 -91 -86 -119 -141 -38 -75 -55 -148 -55 -240 0
-133 39 -241 119 -332 49 -56 91 -69 139 -44 62 32 71 100 21 162 -57 70 -79
130 -79 214 0 84 22 144 79 214 39 48 42 102 9 141 -25 28 -79 40 -114 26z"/>
		<path d="M2511 2646 c-87 -48 -50 -186 49 -186 33 0 71 23 86 51 23 45 17 78
-20 115 -37 37 -73 43 -115 20z"/>
		<path d="M3353 1856 c-105 -34 -205 -122 -256 -226 -27 -56 -32 -78 -35 -160
-2 -62 1 -109 10 -134 28 -83 127 -99 174 -28 20 29 22 41 17 107 -5 57 -2 85
11 120 21 54 89 117 145 133 80 24 106 104 54 161 -34 37 -66 44 -120 27z"/>
	</g>
</svg>